<svg xmlns="http://www.w3.org/2000/svg" xmlns:xlink="http://www.w3.org/1999/xlink" width="700" height="500" viewBox="0 0 700 500"><rect width="100%" height="100%" fill="#DDDDDD"/><path d="M137.46 215.66L184.91 215.66L184.91 220.74Q184.91 223.02 184.44 224.42Q183.96 225.82 183.49 226.77L183.49 226.77L157.46 280.35Q156.65 282.01 155.18 283.18Q153.71 284.34 151.24 284.34L151.24 284.34L142.73 284.34L169.29 231.85Q170.19 230.24 171.07 228.89Q171.95 227.53 173.04 226.30L173.04 226.30L140.17 226.30Q139.08 226.30 138.27 225.49Q137.46 224.68 137.46 223.59L137.46 223.59L137.46 215.66ZM240.87 250.00L240.87 250.00Q240.87 258.98 238.94 265.60Q237.02 272.23 233.63 276.55Q230.23 280.88 225.60 282.99Q220.97 285.10 215.60 285.10L215.60 285.10Q210.23 285.10 205.65 282.99Q201.06 280.88 197.69 276.55Q194.32 272.23 192.42 265.60Q190.52 258.98 190.52 250.00L190.52 250.00Q190.52 240.97 192.42 234.37Q194.32 227.77 197.69 223.45Q201.06 219.12 205.65 217.01Q210.23 214.90 215.60 214.90L215.60 214.90Q220.97 214.90 225.60 217.01Q230.23 219.12 233.63 223.45Q237.02 227.77 238.94 234.37Q240.87 240.97 240.87 250.00ZM228.76 250.00L228.76 250.00Q228.76 242.54 227.66 237.65Q226.57 232.76 224.74 229.86Q222.91 226.96 220.54 225.80Q218.16 224.63 215.60 224.63L215.60 224.63Q213.08 224.63 210.73 225.80Q208.38 226.96 206.57 229.86Q204.77 232.76 203.70 237.65Q202.63 242.54 202.63 250.00L202.63 250.00Q202.63 257.46 203.70 262.35Q204.77 267.24 206.57 270.14Q208.38 273.04 210.73 274.20Q213.08 275.36 215.60 275.36L215.60 275.36Q218.16 275.36 220.54 274.20Q222.91 273.04 224.74 270.14Q226.57 267.24 227.66 262.35Q228.76 257.46 228.76 250.00ZM295.97 250.00L295.97 250.00Q295.97 258.98 294.04 265.60Q292.12 272.23 288.72 276.55Q285.33 280.88 280.70 282.99Q276.07 285.10 270.70 285.10L270.70 285.10Q265.33 285.10 260.75 282.99Q256.16 280.88 252.79 276.55Q249.42 272.23 247.52 265.60Q245.62 258.98 245.62 250.00L245.62 250.00Q245.62 240.97 247.52 234.37Q249.42 227.77 252.79 223.45Q256.16 219.12 260.75 217.01Q265.33 214.90 270.70 214.90L270.70 214.90Q276.07 214.90 280.70 217.01Q285.33 219.12 288.72 223.45Q292.12 227.77 294.04 234.37Q295.97 240.97 295.97 250.00ZM283.86 250.00L283.86 250.00Q283.86 242.54 282.76 237.65Q281.67 232.76 279.84 229.86Q278.01 226.96 275.64 225.80Q273.26 224.63 270.70 224.63L270.70 224.63Q268.18 224.63 265.83 225.80Q263.48 226.96 261.67 229.86Q259.87 232.76 258.80 237.65Q257.73 242.54 257.73 250.00L257.73 250.00Q257.73 257.46 258.80 262.35Q259.87 267.24 261.67 270.14Q263.48 273.04 265.83 274.20Q268.18 275.36 270.70 275.36L270.70 275.36Q273.26 275.36 275.64 274.20Q278.01 273.04 279.84 270.14Q281.67 267.24 282.76 262.35Q283.86 257.46 283.86 250.00ZM371.40 268.62L365.18 274.75L349.07 258.64L332.83 274.84L326.61 268.71L342.85 252.42L327.37 236.94L333.54 230.76L349.03 246.25L364.42 230.86L370.69 237.03L355.25 252.47L371.40 268.62ZM421.32 226.30L418.90 240.59Q421.18 240.12 423.27 239.91Q425.36 239.69 427.31 239.69L427.31 239.69Q432.72 239.69 436.85 241.31Q440.99 242.92 443.79 245.77Q446.59 248.62 448.02 252.45Q449.44 256.27 449.44 260.69L449.44 260.69Q449.44 266.15 447.52 270.66Q445.59 275.17 442.17 278.38Q438.75 281.59 434.07 283.34Q429.40 285.10 423.89 285.10L423.89 285.10Q420.66 285.10 417.76 284.44Q414.86 283.77 412.32 282.66Q409.78 281.54 407.62 280.09Q405.46 278.64 403.75 277.03L403.75 277.03L407.36 272.04Q408.50 270.42 410.35 270.42L410.35 270.42Q411.54 270.42 412.77 271.18Q414.01 271.94 415.60 272.85Q417.19 273.75 419.35 274.51Q421.51 275.27 424.55 275.27L424.55 275.27Q427.78 275.27 430.25 274.22Q432.72 273.18 434.36 271.30Q436.00 269.43 436.83 266.84Q437.66 264.25 437.66 261.21L437.66 261.21Q437.66 255.60 434.41 252.45Q431.15 249.29 424.79 249.29L424.79 249.29Q419.90 249.29 414.77 251.09L414.77 251.09L407.45 249.00L413.15 215.66L447.07 215.66L447.07 220.64Q447.07 223.16 445.50 224.73Q443.93 226.30 440.18 226.30L440.18 226.30L421.32 226.30ZM507.44 250.00L507.44 250.00Q507.44 258.98 505.51 265.60Q503.59 272.23 500.19 276.55Q496.80 280.88 492.17 282.99Q487.54 285.10 482.17 285.10L482.17 285.10Q476.80 285.10 472.22 282.99Q467.63 280.88 464.26 276.55Q460.89 272.23 458.99 265.60Q457.09 258.98 457.09 250.00L457.09 250.00Q457.09 240.97 458.99 234.37Q460.89 227.77 464.26 223.45Q467.63 219.12 472.22 217.01Q476.80 214.90 482.17 214.90L482.17 214.90Q487.54 214.90 492.17 217.01Q496.80 219.12 500.19 223.45Q503.59 227.77 505.51 234.37Q507.44 240.97 507.44 250.00ZM495.33 250.00L495.33 250.00Q495.33 242.54 494.23 237.65Q493.14 232.76 491.31 229.86Q489.48 226.96 487.11 225.80Q484.73 224.63 482.17 224.63L482.17 224.63Q479.65 224.63 477.30 225.80Q474.95 226.96 473.14 229.86Q471.34 232.76 470.27 237.65Q469.20 242.54 469.20 250.00L469.20 250.00Q469.20 257.46 470.27 262.35Q471.34 267.24 473.14 270.14Q474.95 273.04 477.30 274.20Q479.65 275.36 482.17 275.36L482.17 275.36Q484.73 275.36 487.11 274.20Q489.48 273.04 491.31 270.14Q493.14 267.24 494.23 262.35Q495.33 257.46 495.33 250.00ZM562.54 250.00L562.54 250.00Q562.54 258.98 560.62 265.60Q558.69 272.23 555.30 276.55Q551.90 280.88 547.27 282.99Q542.64 285.10 537.27 285.10L537.27 285.10Q531.90 285.10 527.32 282.99Q522.73 280.88 519.36 276.55Q515.99 272.23 514.09 265.60Q512.19 258.98 512.19 250.00L512.19 250.00Q512.19 240.97 514.09 234.37Q515.99 227.77 519.36 223.45Q522.73 219.12 527.32 217.01Q531.90 214.90 537.27 214.90L537.27 214.90Q542.64 214.90 547.27 217.01Q551.90 219.12 555.30 223.45Q558.69 227.77 560.62 234.37Q562.54 240.97 562.54 250.00ZM550.43 250.00L550.43 250.00Q550.43 242.54 549.33 237.65Q548.24 232.76 546.41 229.86Q544.58 226.96 542.21 225.80Q539.83 224.63 537.27 224.63L537.27 224.63Q534.75 224.63 532.40 225.80Q530.05 226.96 528.24 229.86Q526.44 232.76 525.37 237.65Q524.30 242.54 524.30 250.00L524.30 250.00Q524.30 257.46 525.37 262.35Q526.44 267.24 528.24 270.14Q530.05 273.04 532.40 274.20Q534.75 275.36 537.27 275.36L537.27 275.36Q539.83 275.36 542.21 274.20Q544.58 273.04 546.41 270.14Q548.24 267.24 549.33 262.35Q550.43 257.46 550.43 250.00Z" fill="#999999"/></svg>